<?xml version="1.0" encoding="UTF-8" standalone="no"?>
<!-- Created with Inkscape (http://www.inkscape.org/) -->

<svg
   xmlns:dc="http://purl.org/dc/elements/1.1/"
   xmlns:cc="http://creativecommons.org/ns#"
   xmlns:rdf="http://www.w3.org/1999/02/22-rdf-syntax-ns#"
   xmlns:svg="http://www.w3.org/2000/svg"
   xmlns="http://www.w3.org/2000/svg"
   xmlns:sodipodi="http://sodipodi.sourceforge.net/DTD/sodipodi-0.dtd"
   xmlns:inkscape="http://www.inkscape.org/namespaces/inkscape"
   width="128"
   height="48"
   viewBox="0 0 128 47.999999"
   id="svg2"
   version="1.1"
   inkscape:version="0.91 r13725"
   sodipodi:docname="ipv6.svg">
  <defs
     id="defs4" />
  <sodipodi:namedview
     id="base"
     pagecolor="#ffffff"
     bordercolor="#666666"
     borderopacity="1.0"
     inkscape:pageopacity="0.0"
     inkscape:pageshadow="2"
     inkscape:zoom="5.6"
     inkscape:cx="104.66146"
     inkscape:cy="29.704261"
     inkscape:document-units="px"
     inkscape:current-layer="layer1"
     showgrid="false"
     units="px"
     width="256px"
     inkscape:window-width="3840"
     inkscape:window-height="2039"
     inkscape:window-x="0"
     inkscape:window-y="0"
     inkscape:window-maximized="1" />
  <metadata
     id="metadata7">
    <rdf:RDF>
      <cc:Work
         rdf:about="">
        <dc:format>image/svg+xml</dc:format>
        <dc:type
           rdf:resource="http://purl.org/dc/dcmitype/StillImage" />
        <dc:title></dc:title>
      </cc:Work>
    </rdf:RDF>
  </metadata>
  <g
     inkscape:label="Layer 1"
     inkscape:groupmode="layer"
     id="layer1"
     transform="translate(0,-1004.3622)">
    <rect
       style="fill:none;stroke:#00ff00;stroke-width:1.42553389;stroke-linejoin:round;stroke-miterlimit:4;stroke-dasharray:none"
       id="rect3336"
       width="124.06555"
       height="40.615822"
       x="1.4856101"
       y="1007.8616"
       rx="4.9698992"
       ry="4.9975562" />
    <text
       xml:space="preserve"
       style="font-style:normal;font-weight:normal;font-size:58.30464172px;line-height:125%;font-family:Sans;letter-spacing:0px;word-spacing:0px;fill:#00ffff;fill-opacity:1;stroke:none;stroke-width:1px;stroke-linecap:butt;stroke-linejoin:miter;stroke-opacity:1;"
       x="2.1564765"
       y="1098.954"
       id="text4138"
       sodipodi:linespacing="125%"
       transform="scale(1.0526928,0.94994475)"><tspan
         sodipodi:role="line"
         id="tspan4140"
         x="2.1564765"
         y="1098.954"
         style="font-style:normal;font-variant:normal;font-weight:normal;font-stretch:normal;font-family:'Nimbus Mono L';-inkscape-font-specification:'Nimbus Mono L';fill:#00ffff;">IP</tspan></text>
    <text
       xml:space="preserve"
       style="font-style:normal;font-variant:normal;font-weight:normal;font-stretch:normal;font-size:43.48353195px;line-height:125%;font-family:'Adobe 楷体 Std';-inkscape-font-specification:'Adobe 楷体 Std';letter-spacing:0px;word-spacing:0px;fill:#00ffff;fill-opacity:1;stroke:none;stroke-width:1px;stroke-linecap:butt;stroke-linejoin:miter;stroke-opacity:1;"
       x="90.922165"
       y="1100.4423"
       id="text4142"
       sodipodi:linespacing="125%"
       transform="scale(1.0543521,0.94844973)"><tspan
         sodipodi:role="line"
         id="tspan4144"
         x="90.922165"
         y="1100.4423">6</tspan></text>
    <path
       style="fill:#ff0000;stroke:#ff0000;stroke-width:1.11378682;stroke-linejoin:round;stroke-miterlimit:4;stroke-dasharray:none"
       id="path4146"
       d="m 73.018516,1038.2511 c 0.277311,0.3805 0.570716,0.7478 0.867247,1.1124 0.33907,0.4254 0.674431,0.8541 1.025863,1.2687 0.221886,0.2797 0.463627,0.5437 0.668378,0.8374 0.08665,0.1317 0.151862,0.2758 0.21441,0.4206 0.0649,0.1682 0.14173,0.3296 0.230184,0.486 0.08177,0.1376 0.166302,0.2724 0.266378,0.3966 0.147023,0.1921 0.313094,0.3674 0.468066,0.5525 0.268174,0.3166 0.542749,0.6279 0.838292,0.9177 0.181366,0.1626 0.365811,0.3328 0.589781,0.4303 0.09996,0.028 0.200933,0.054 0.304132,0.066 0.118189,0.011 0.237012,0.011 0.355583,0.011 0.112981,0.011 0.223919,0.029 0.333515,0.059 0.08427,0.02 0.172525,0.041 0.25855,0.025 0.150408,-0.03 0.289924,-0.1063 0.428207,-0.1723 0.202236,-0.1086 0.690541,-0.3851 -0.211059,0.1329 -0.04498,0.027 0.08805,-0.055 0.131616,-0.083 0.115285,-0.075 0.156778,-0.1052 0.271299,-0.1843 0.35851,-0.2473 0.697021,-0.5222 1.02707,-0.8077 0.438144,-0.3823 0.850247,-0.7937 1.271305,-1.1953 0.245998,-0.2192 0.493242,-0.4369 0.735274,-0.6609 0.240417,-0.2326 0.484618,-0.461 0.72591,-0.6928 0.307222,-0.2729 0.577686,-0.5841 0.860833,-0.8821 0.283576,-0.2856 0.579779,-0.5569 0.869407,-0.8358 0.337102,-0.3293 0.664479,-0.6688 0.992636,-1.0073 0.305933,-0.3088 0.589649,-0.6399 0.896363,-0.9478 0.326477,-0.3296 0.665002,-0.6458 0.994694,-0.9719 0.289522,-0.2942 0.585121,-0.5814 0.888298,-0.8607 0.165024,-0.1585 0.349399,-0.2937 0.509648,-0.4578 0.05044,-0.051 0.17721,-0.1941 0.226667,-0.2492 0.195227,-0.2051 0.374022,-0.4246 0.54941,-0.6474 0.199946,-0.2739 0.432153,-0.5199 0.658291,-0.7704 0.220252,-0.2314 0.413497,-0.485 0.590279,-0.7521 0.156104,-0.2294 0.322803,-0.451 0.483727,-0.6768 0.124136,-0.189 0.260935,-0.3688 0.386716,-0.5564 0.08859,-0.144 0.170336,-0.2925 0.250242,-0.4417 0.106994,-0.2235 0.236,-0.4348 0.366843,-0.6441 0.171831,-0.249 0.324825,-0.511 0.471315,-0.7763 0.162921,-0.3066 0.330481,-0.6108 0.486434,-0.9212 0.120105,-0.2173 0.219714,-0.4458 0.338758,-0.6636 0.07102,-0.1264 0.122636,-0.2624 0.172772,-0.3984 0.03583,-0.094 0.05151,-0.1934 0.05986,-0.2934 0.0083,-0.069 -5.03e-4,-0.1359 -0.0238,-0.201 -0.02455,-0.085 -0.0587,-0.1669 -0.0832,-0.2521 -0.04091,-0.085 -0.08977,-0.1661 -0.147188,-0.2405 -0.04679,-0.075 -0.118999,-0.1267 -0.185184,-0.1828 -0.11104,-0.081 -0.236684,-0.1334 -0.360362,-0.1888 -0.168225,-0.064 -0.348322,-0.092 -0.525567,-0.1158 -0.163928,-0.033 -0.329203,-0.056 -0.495722,-0.068 -0.09828,-0.015 -0.182543,-0.011 -0.276919,0.021 -0.03678,0.022 -0.09428,0.011 -0.122847,0.035 -0.166761,0.1666 -0.0066,0.011 0.544615,-0.3163 0.01198,-0.011 -0.02264,0.016 -0.03401,0.025 -0.03969,0.029 -0.07871,0.059 -0.118949,0.087 -0.129534,0.1085 -0.263752,0.2104 -0.396863,0.314 -0.144975,0.1097 -0.271555,0.2416 -0.401578,0.3687 -0.152224,0.1683 -0.31267,0.3275 -0.476587,0.4837 -0.173129,0.1593 -0.336785,0.3267 -0.491586,0.5048 -0.19649,0.2176 -0.40827,0.4197 -0.609982,0.6321 -0.20151,0.1883 -0.391786,0.3869 -0.575214,0.5935 -0.184234,0.2468 -0.355996,0.5022 -0.548525,0.7426 -0.172857,0.2183 -0.334305,0.4453 -0.507374,0.6636 -0.185672,0.2325 -0.391953,0.4459 -0.590002,0.6669 -0.287952,0.3411 -0.559447,0.6965 -0.837241,1.0463 -0.271184,0.3252 -0.538035,0.6524 -0.78686,0.9961 -0.214431,0.3241 -0.457222,0.6256 -0.710957,0.9176 -0.204314,0.2442 -0.426578,0.4697 -0.667287,0.6755 -0.169336,0.1461 -0.353499,0.2723 -0.523564,0.4174 -0.190297,0.1717 -0.378087,0.3462 -0.562446,0.5247 -0.24654,0.216 -0.488523,0.4373 -0.731214,0.6579 -0.225983,0.2098 -0.447075,0.4251 -0.672504,0.6356 -0.206567,0.1777 -0.41244,0.356 -0.611409,0.5428 -0.175479,0.1706 -0.355779,0.3359 -0.540652,0.4957 -0.168591,0.1428 -0.341665,0.2793 -0.522603,0.4052 -0.387052,0.2723 -0.799054,0.5041 -1.211786,0.7323 -0.171268,0.086 -0.341067,0.1743 -0.527131,0.2208 -0.119095,0.027 -0.237575,0.049 -0.359261,0.058 -0.173059,0.011 -0.346429,0.011 -0.51966,0.011 -0.223593,0.011 -0.443522,0 -0.662824,-0.047 -0.217475,-0.048 -0.421014,-0.1355 -0.616014,-0.243 -0.185501,-0.1074 -0.355772,-0.2399 -0.527327,-0.3691 -0.165432,-0.1494 -0.310453,-0.3206 -0.460277,-0.486 -0.110511,-0.1352 -0.22636,-0.2654 -0.341535,-0.3962 -0.108121,-0.1279 -0.217877,-0.2541 -0.328323,-0.3799 -0.127295,-0.1537 -0.259138,-0.3017 -0.399122,-0.4433 -0.105324,-0.1137 -0.219044,-0.2159 -0.352991,-0.292 -0.14494,-0.082 -0.290886,-0.1616 -0.4326,-0.2495 -0.111411,-0.076 -0.226959,-0.1486 -0.352493,-0.1972 -0.107135,-0.035 -0.208922,-0.079 -0.319407,-0.1029 -0.100961,-0.02 -0.203584,-0.023 -0.30604,-0.025 -0.08522,0 -0.170427,3e-4 -0.255646,0 -0.09891,0.011 -0.198557,-0.011 -0.2964,0.011 -0.05341,0.018 -0.112453,0.016 -0.166312,0.03 -0.02284,0.011 -0.04408,0.018 -0.06656,0.025 -0.06655,0.022 -0.135012,0.027 -0.204156,0.029 -0.09852,0.019 -0.190971,0.058 -0.285392,0.092 -0.0711,0.031 -0.148235,0.035 -0.215322,0.074 -0.201127,0.091 -0.52449,0.2895 0.498158,-0.2948 0.07805,-0.045 -0.06813,0.054 -0.08755,0.069 -0.03588,0.019 -0.06357,0.06 -0.100525,0.077 -0.02189,0.028 -0.01726,0.066 -0.01762,0.1007 0.001,0.039 -0.0015,0.081 0.0015,0.1209 0.01771,0.025 0.02934,0.054 0.03769,0.084 10e-4,0.033 0.01751,0.057 0.03009,0.085 0.01594,0.035 0.01413,0.073 0.02983,0.1074 0.02561,0.056 0.0496,0.1119 0.06705,0.1711 0.01182,0.038 0.01776,0.076 0.02007,0.1158 -0.0035,0.039 0.0083,0.072 0.02541,0.1063 0.02934,0.036 0.04076,0.082 0.05945,0.1229 0.02007,0.033 0.02722,0.074 0.04628,0.1063 0.02098,0.027 0.03547,0.059 0.04564,0.092 0.0085,0.032 0.0084,0.067 0.0087,0.1018 0.0091,0.041 0.02581,0.081 0.03446,0.1229 0.0153,0.047 0.03109,0.095 0.05424,0.1395 0.01504,0.052 0.04382,0.095 0.06722,0.1425 0.0166,0.034 0.04076,0.063 0.05589,0.099 0.01157,0.029 0.0168,0.06 0.01892,0.092 0.0066,0.036 -0.01967,-0.011 0.004,-0.011 0.02043,0.025 0.03315,0.054 0.0402,0.085 -1.87e-4,0.031 0.0051,0.057 0.01635,0.085 0.01167,0.018 0.02405,0.065 0.02521,0.069 0.02209,0.011 0.03331,0.038 0.04176,0.057 0.01992,0.038 -0.03622,-0.053 0.02787,0.031 0.01811,0.024 0.0239,0.055 0.02787,0.084 10e-4,0.015 0.0015,0.029 0.0025,0.044 0,0 -0.617638,0.3234 -0.617638,0.3234 l 0,0 c 3.72e-4,-0.012 3.72e-4,-0.027 3.72e-4,-0.04 5.03e-4,-0.015 0.0015,-0.035 -0.0075,-0.046 -0.01313,-0.016 -0.03441,-0.026 -0.03839,-0.049 -0.0066,-0.02 -0.01776,-0.025 -0.0328,-0.041 -0.01696,-0.027 -0.01821,-0.055 -0.0329,-0.084 -0.01413,-0.032 -0.03165,-0.067 -0.02727,-0.104 0.0035,-0.011 -0.0075,-0.035 0.0051,-0.011 -0.02636,-0.012 -0.05465,-0.038 -0.05125,-0.071 5e-6,-0.025 3.62e-4,-0.048 -0.0075,-0.071 -0.01107,-0.035 -0.04125,-0.059 -0.053,-0.094 -0.02189,-0.047 -0.05242,-0.09 -0.06573,-0.1407 -0.02661,-0.052 -0.04447,-0.1052 -0.06474,-0.1586 -0.0075,-0.047 -0.02405,-0.09 -0.04071,-0.1342 1.05e-4,-0.029 0.001,-0.058 -0.0015,-0.087 -0.0015,-0.028 -0.02148,-0.053 -0.03557,-0.074 -0.01967,-0.035 -0.02888,-0.076 -0.04855,-0.1108 -0.01957,-0.039 -0.02817,-0.085 -0.0577,-0.1205 -0.02209,-0.041 -0.04393,-0.087 -0.04135,-0.1346 4.1e-5,-0.035 -0.0015,-0.068 -0.01132,-0.1007 -0.01464,-0.056 -0.03673,-0.1086 -0.06168,-0.1598 -0.01761,-0.036 -0.02465,-0.071 -0.03164,-0.1097 -0.01243,-0.032 -0.03829,-0.06 -0.03673,-0.097 -0.0025,-0.029 -0.02043,-0.052 -0.03371,-0.076 -0.01796,-0.045 -0.0094,-0.094 -0.01142,-0.1419 -1.91e-4,-0.044 -0.004,-0.087 0.0035,-0.13 0.0066,-0.046 0.05175,-0.085 0.09039,-0.1052 0.231044,-0.1989 0.4947,-0.3621 0.773068,-0.481 0.07185,-0.024 0.147078,-0.037 0.216986,-0.068 0.09663,-0.035 0.194915,-0.069 0.29783,-0.077 0.06631,-0.011 0.131153,-0.021 0.194415,-0.044 0.07796,-0.022 0.159868,-0.031 0.23995,-0.045 0.100303,-0.011 0.200756,-0.011 0.301149,-0.011 0.08545,-3e-4 0.170932,0 0.256356,0 0.105334,0.011 0.210553,0.013 0.313466,0.038 0.111402,0.029 0.217555,0.073 0.326099,0.112 0.125112,0.057 0.242203,0.1298 0.356096,0.2074 0.142448,0.087 0.288963,0.1658 0.433978,0.2478 0.134434,0.085 0.251114,0.191 0.359431,0.3087 0.140336,0.1429 0.2732,0.2919 0.401859,0.4459 0.111164,0.1254 0.220649,0.252 0.329002,0.3798 0.114717,0.1308 0.229857,0.2613 0.340061,0.3961 0.145905,0.163 0.28772,0.3316 0.452247,0.4753 0.16925,0.1275 0.339034,0.2552 0.523172,0.3595 0.190885,0.103 0.390755,0.1848 0.603425,0.2264 0.217299,0.039 0.435623,0.04 0.655831,0.035 0.172792,0 0.345936,0 0.518281,-0.015 0.118853,-0.014 0.235869,-0.039 0.351995,-0.068 0.179605,-0.056 0.346973,-0.1437 0.514056,-0.2305 0.20863,-0.1153 0.66863,-0.3803 -0.264874,0.1671 -0.03466,0.02 0.06788,-0.043 0.101545,-0.065 0.08339,-0.054 0.121756,-0.082 0.203855,-0.1377 0.183429,-0.121 0.355003,-0.2576 0.525029,-0.3975 0.1853,-0.1595 0.368874,-0.3213 0.543287,-0.4934 0.197888,-0.1882 0.401502,-0.3698 0.611551,-0.5436 0.228222,-0.2083 0.448121,-0.4261 0.673827,-0.6371 0.243229,-0.2188 0.480734,-0.4442 0.730751,-0.6549 0.183277,-0.1789 0.370101,-0.3538 0.558411,-0.527 0.167182,-0.1504 0.352724,-0.2753 0.524862,-0.4195 0.2449,-0.2009 0.471079,-0.4228 0.675629,-0.6672 0.25372,-0.2903 0.501975,-0.5863 0.713005,-0.9116 0.07466,-0.103 0.147007,-0.2083 0.223669,-0.31 0.12983,-0.1722 0.273019,-0.3319 0.410628,-0.4973 0.053,-0.064 0.104111,-0.1291 0.156175,-0.1937 0.276722,-0.3493 0.547235,-0.7036 0.830338,-1.0473 0.193838,-0.2227 0.401628,-0.4322 0.587642,-0.6622 0.175469,-0.2175 0.339261,-0.4437 0.509749,-0.6651 0.194991,-0.2385 0.372115,-0.4895 0.545535,-0.7446 0.183353,-0.2075 0.367497,-0.4135 0.575372,-0.5959 0.198839,-0.214 0.410649,-0.4146 0.609428,-0.6287 0.155363,-0.1805 0.310859,-0.3523 0.488421,-0.5105 0.161981,-0.1576 0.330648,-0.3081 0.476311,-0.4827 0.129776,-0.1281 0.255733,-0.2614 0.397296,-0.3757 0.132533,-0.103 0.270213,-0.2015 0.394167,-0.3151 0.244925,-0.1878 0.523967,-0.379 0.794566,-0.4939 0.04423,-5e-4 0.08478,-0.018 0.128176,-0.027 0.09554,-0.018 0.190935,-0.012 0.287338,0 0.166509,0.017 0.331447,0.044 0.49619,0.074 0.181778,0.028 0.366561,0.057 0.536963,0.1307 0.129161,0.058 0.260079,0.1162 0.372985,0.2043 0.06962,0.059 0.144401,0.115 0.192656,0.1959 0.06184,0.083 0.115859,0.1708 0.16116,0.264 0.02194,0.084 0.05696,0.163 0.08053,0.2463 0.02853,0.073 0.04462,0.1502 0.03764,0.2286 -0.0058,0.1063 -0.01902,0.2116 -0.053,0.3122 -0.04911,0.1399 -0.101611,0.2789 -0.169724,0.4103 -0.125755,0.2148 -0.221494,0.4459 -0.344684,0.6623 -0.154272,0.3123 -0.325375,0.6155 -0.486258,0.9242 -0.145146,0.2659 -0.292873,0.5316 -0.466622,0.7791 -0.132291,0.2058 -0.262594,0.4149 -0.366247,0.6376 -0.0793,0.1517 -0.162111,0.3011 -0.248895,0.4482 -0.120952,0.1923 -0.265328,0.3677 -0.387123,0.5596 -0.160034,0.2265 -0.32708,0.4478 -0.485926,0.6752 -0.177175,0.2695 -0.364331,0.5308 -0.58812,0.7626 -0.224097,0.2506 -0.460197,0.4914 -0.658176,0.7652 -0.174558,0.225 -0.351214,0.4478 -0.548912,0.6523 -0.113942,0.127 -0.223094,0.2597 -0.347245,0.3766 -0.104534,0.098 -0.151506,0.1269 -0.259767,0.221 -0.04347,0.038 -0.0853,0.077 -0.127944,0.1163 -0.305507,0.278 -0.603415,0.5642 -0.892973,0.8598 -0.329524,0.3253 -0.666275,0.6425 -0.992913,0.971 -0.311221,0.3044 -0.592311,0.6391 -0.899587,0.9477 -0.327886,0.3373 -0.653406,0.6771 -0.987515,1.0078 -0.522438,0.4959 0.25227,-0.242 -0.271444,0.2657 -0.198095,0.1921 -0.412541,0.3656 -0.601242,0.5683 -0.28429,0.2958 -0.549642,0.6113 -0.856708,0.8834 -0.240186,0.2324 -0.485473,0.4587 -0.723666,0.6932 -0.242285,0.2269 -0.490711,0.4466 -0.741805,0.6631 -0.425446,0.3987 -0.835632,0.8147 -1.273726,1.1992 -0.326174,0.2868 -0.659965,0.564 -1.016071,0.8112 -0.434914,0.3073 -0.888801,0.5878 -1.362386,0.8276 -0.14348,0.066 -0.288062,0.1451 -0.447663,0.1562 -0.09192,-0.011 -0.182292,-0.018 -0.270917,-0.044 -0.105781,-0.026 -0.21448,-0.04 -0.323095,-0.046 -0.120639,0 -0.241765,0 -0.361554,-0.018 -0.106722,-0.018 -0.213586,-0.044 -0.314255,-0.084 -0.222899,-0.1135 -0.410957,-0.2849 -0.594088,-0.4555 -0.294689,-0.2937 -0.571758,-0.6051 -0.843354,-0.9214 -0.159027,-0.1829 -0.325416,-0.3593 -0.475064,-0.5506 -0.102325,-0.1274 -0.187428,-0.2664 -0.270529,-0.4076 -0.08936,-0.1586 -0.169271,-0.3212 -0.236392,-0.4912 -0.06077,-0.1405 -0.1208,-0.2819 -0.203639,-0.4108 -0.200208,-0.2936 -0.437732,-0.5583 -0.6581,-0.8358 -0.348473,-0.4175 -0.682385,-0.8477 -1.023678,-1.2712 -0.297613,-0.3642 -0.589766,-0.7328 -0.877738,-1.1051 0,0 0.587798,-0.3637 0.587798,-0.3637 z"
       inkscape:connector-curvature="0" />
    <path
       style="fill:#ff0000;stroke:#ff0000;stroke-width:3;stroke-linejoin:round;stroke-miterlimit:4;stroke-dasharray:none"
       id="path4186"
       d="m 75.887423,1037.0963 c 0.85363,0.7729 1.710077,1.5429 2.563443,2.3162 0.391343,0.3853 0.836026,0.7384 1.142675,1.1996 0.109947,0.2055 0.260429,0.3812 0.394026,0.5709 0.283034,0.4104 3.279198,-1.3513 -2.327894,1.2403 -1.81e-4,0 -0.149514,-0.2355 -0.16127,-0.2555 0,0 2.313847,-1.3368 2.313847,-1.3368 l 0,0 c 0.01826,0.032 0.177183,0.2722 0.167451,0.2798 -1.193539,0.9293 -1.732639,2.2835 -2.295576,1.4276 -0.131621,-0.1929 -0.282619,-0.3713 -0.392056,-0.5788 -0.29135,-0.443 -0.720169,-0.7818 -1.089264,-1.1557 -0.844346,-0.7796 -1.689449,-1.56 -2.56357,-2.306 0,0 2.248188,-1.4016 2.248188,-1.4016 z"
       inkscape:connector-curvature="0" />
    <path
       style="fill:#ff0000;stroke:#ff0000;stroke-width:3;stroke-linejoin:round;stroke-miterlimit:4;stroke-dasharray:none"
       id="path4188"
       d="m 81.903044,1040.6759 c 1.005664,-0.7757 2.005636,-1.5587 2.971095,-2.3842 0.704863,-0.6123 1.404717,-1.2301 2.114424,-1.8367 0.322349,-0.2769 0.595669,-0.6044 0.892368,-0.9081 0.289943,-0.2851 0.576898,-0.5703 0.828803,-0.8899 0.127496,-0.1659 0.245303,-0.3395 0.35163,-0.5198 0.173787,-0.2939 0.297199,-0.615 0.440976,-0.925 0.152705,-0.2927 0.274389,-0.5994 0.409998,-0.9 0.0887,-0.1964 0.119529,-0.4071 0.202248,-0.6058 0.06461,-0.103 0.0744,-0.2265 0.140431,-0.3226 0.102246,-0.1856 0.08614,-0.2392 0.271877,-0.3746 0.0483,-0.03 0.09575,-0.061 0.14489,-0.09 0.812618,-0.4732 1.622747,-0.9508 2.440315,-1.4155 0.109111,-0.062 0.226417,-0.1087 0.33586,-0.1702 0.05105,-0.029 0.207492,-0.1083 0.156831,-0.079 -0.714033,0.4134 -1.431459,0.8209 -2.147188,1.2314 0.138076,-0.093 0.07439,-0.047 0.191967,-0.1361 0,0 2.47529,-1.0027 2.47529,-1.0027 l 0,0 c -0.112837,0.1078 -0.0518,0.052 -0.183995,0.167 -0.80476,0.4699 -1.608766,0.9411 -2.414282,1.4097 -0.168324,0.098 -0.140777,0.074 -0.317445,0.1652 -0.05662,0.029 -0.223386,0.1232 -0.168324,0.091 2.247236,-1.3137 2.784838,-1.6813 1.974939,-1.1344 -0.05988,0.031 -0.113489,0.08 -0.179608,0.091 -0.01943,0 -0.03991,-0.019 -0.05806,-0.012 -0.04244,0.018 -0.04316,0.1429 -0.08244,0.1678 -0.01038,0.023 -0.02076,0.046 -0.03115,0.068 -0.01559,0 -0.03838,-0 -0.04677,0.01 -0.03099,0.05 -0.0074,0.1803 -0.07455,0.2222 -0.03502,0.077 -0.09602,0.1616 -0.123261,0.2383 -0.04172,0.1175 -0.01837,0.258 -0.08038,0.3713 -0.136412,0.3052 -0.265629,0.6103 -0.413344,0.91 -0.09551,0.1888 -0.187066,0.3817 -0.271703,0.5757 -0.04133,0.095 -0.05611,0.1999 -0.100169,0.2934 -0.0119,0.025 -0.03559,0.043 -0.05339,0.064 -0.101837,0.1967 -0.218338,0.3772 -0.341066,0.5596 -0.249275,0.3305 -0.51085,0.6439 -0.820532,0.9212 -0.303172,0.3059 -0.594269,0.6212 -0.886621,0.9349 -0.734315,0.5896 -1.424132,1.2329 -2.142603,1.8417 -0.949412,0.8352 -1.952151,1.6055 -2.943504,2.3898 0,0 -2.463564,0.9833 -2.463564,0.9833 z"
       inkscape:connector-curvature="0" />
  </g>
</svg>
